<svg xmlns="http://www.w3.org/2000/svg" xmlns:xlink="http://www.w3.org/1999/xlink" width="397" height="177" viewBox="0 0 397 177"><defs><path id="a" d="M296 223.15c0 16.39 0 35.08-10.77 48.47-11.7 14.3-30.44 22.38-48.93 22.38a66.68 66.68 0 0 1-23.42-4.15c-24.58-8.77-34.88-29.08-34.88-54h47.06c.47 8.53 2.1 19.84 13.34 19.84 12.65 0 13.35-12.23 13.35-21.69v-85.94h-20.29l7.73-28.06H296zM450 228c0 39.76-30.2 69-70 69s-70-29.24-70-69c0-39.76 30.2-69 70-69s70 29.24 70 69zm-39-.5c0-17.41-13.05-32.5-31-32.5s-31 15.09-31 32.5 13.05 32.5 31 32.5 31-15.09 31-32.5zm118-34.8h-18.78V293h-38.97V192.7H452v-29.45h19.25V120h38.97v43.25H529zm1 78.8a22.5 22.5 0 1 1 45 0 22.5 22.5 0 0 1-45 0z"/></defs><use fill="#fff" xlink:href="#a" transform="translate(-178 -120)"/></svg>