<?xml version="1.0" encoding="UTF-8"?>
<svg width="103px" height="21px" viewBox="0 0 103 21" version="1.1" xmlns="http://www.w3.org/2000/svg" xmlns:xlink="http://www.w3.org/1999/xlink">
    <title>lekskekshover</title>
    <g id="Page-1" stroke="none" stroke-width="1" fill="none" fill-rule="evenodd" stroke-linecap="round" stroke-linejoin="round">
        <g id="lekskekshover" transform="translate(2.000000, 2.000000)" stroke="#FF9F0A" stroke-width="2.2">
            <path d="M2.49838447,0.0688607595 C2.19590086,1.69002995 2.4021961,3.32722401 1.97675096,4.93830018 C1.50015311,6.74273736 0.647755721,8.42703219 0.244473797,10.2504159 C0.0687638002,11.0448428 -0.177939418,11.9587923 0.193409741,12.7294033 C3.36390248,13.3433953 6.89530107,13.7032911 10.1225316,13.7032911" id="L"></path>
            <path d="M13.5368366,6.76014432 C13.5441951,5.87969203 13.9710744,5.13844974 14.3566399,4.36761092 C15.273699,2.53431004 16.5389994,0.0368596183 18.8562049,0.0256944624 C19.6649262,0.021795519 21.5886757,-0.201418986 21.982043,0.742745585 C22.4055534,1.75966089 21.5567595,2.98171379 20.8939662,3.65862352 C19.3893829,5.19542748 16.6114315,8.12335669 14.2460857,6.76014432 L13.4481805,6.76014432 C13.1218373,7.32522527 13.1383273,7.90554754 13.0559657,8.53239129 C12.9273257,9.51067162 12.7938095,11.0083975 13.2910818,11.8996605 C13.5973888,12.448614 14.1821647,12.7733783 14.6893664,13.1107255 C16.5868737,14.3726539 18.894859,14.7172674 20.8952961,13.4946828 M14.2517577,6.58291963 L14.2517577,6.76014432" id="Shape-Copy"></path>
            <path d="M27.6376631,0.284050633 C26.7922966,2.87829661 26.6616943,5.53801447 26.6616943,8.25762272 C29.4582886,10.1914797 31.5416272,14.3445591 35.1792405,14.8136709 M33.0498539,1.87876505 L31.0979163,3.9405536 L29.6783252,4.33028409 L26.9278676,5.33397962 M26.7504187,8.34621797 L26.3702345,10.1181229 L25.9518987,13.7505279" id="Shape-Copy-2"></path>
            <path d="M92.5905038,14.5460888 L92.9445225,15.0770416 C94.459457,15.0770416 95.9587262,15.1232345 97.4582609,14.8782883 C98.1579789,14.7639565 98.8333581,14.7672307 99.2283544,14.1036282 C98.4989874,12.4057298 95.7308267,11.116665 94.1835879,10.2110366 C93.5390969,9.83379471 92.6959128,9.54610681 92.2907384,8.88126548 C91.2860333,7.23239172 93.0958655,4.98637311 94.2720926,4.00853513 C94.6398295,3.70279484 95.0434994,3.3290041 95.5111581,3.18803615 C96.5604695,2.8716768 97.7447506,3.46917563 98.6973264,3.83854176" id="Shape-Copy-7"></path>
            <path d="M88.9681013,0.748860759 C85.7474343,3.56528087 82.0634505,6.00259654 78.1788935,7.76437989 C77.9093402,7.25713121 78.0020212,6.64012074 78.0020212,6.07710313 C78.0020212,4.79201988 77.8274483,3.24407666 78.4442019,2.08092135 M78.1788935,7.76437989 L78.1788935,8.38600816 C80.3075511,9.74568681 82.7075308,10.7115195 84.9000393,11.9631237 C85.8858369,12.5258749 87.0296697,13.613458 88.1721761,13.7142505 M78.1788935,8.38600816 C77.8056046,9.08835931 78.0020212,10.1776297 78.0020212,10.9613253 C78.0020212,12.9782427 78.0044974,14.9894765 78.0904574,17" id="Shape-Copy-6"></path>
            <path d="M64.535202,9.01042672 C64.6723209,5.86761297 67.2742974,3.22554996 69.6793762,1.56078428 C70.7963715,0.787670544 72.725969,-0.00361846226 74.0253165,0.853722119 C74.0230104,4.38548655 70.8445317,6.61873907 67.9942157,8.0571562 C66.9917226,8.5630492 65.7108232,9.34804336 64.535202,9.01042672 C64.3243796,9.44840629 64.3880609,9.86989513 64.3325393,10.3403242 C64.1920501,11.5299618 63.8551067,13.9439031 64.8105927,14.8430911 C66.1805395,16.1323824 69.0627848,16.0818463 70.7436881,15.5712543 M62.9387342,8.92176688 L64.4465094,9.09908655" id="Shape-Copy-5"></path>
            <path d="M50.5573342,0.550886076 C50.0154842,2.24471489 49.318731,4.36277813 49.8463616,6.1469433 L49.5797468,6.76872744 L49.8463616,7.74581679 C50.8085742,7.95287091 51.4861311,8.76323329 52.1570226,9.43351659 C52.6945179,9.97056043 53.3258616,10.4369874 53.7998137,11.0323901 C54.9080423,12.4243871 55.9080253,14.1960278 57.5781889,14.9407475 M59.9777215,3.12684893 C58.8247017,3.83230744 57.5675243,4.75734458 56.2451152,5.10234595 C55.3379141,5.33897923 54.4006745,5.17411761 53.4900963,5.3662489 C52.2925518,5.61878209 51.0667461,6.04985615 49.8463616,6.1469433 M49.7630542,7.8346431 L49.7630542,15.5625316" id="Shape-Copy-4"></path>
            <path d="M40.4609455,13.7118987 C41.1490996,13.7118987 41.8173793,13.6645351 42.5016295,13.6264672 C43.0423221,13.5964555 43.8243477,13.5842383 44.263361,13.2238323 C45.0472498,12.5802184 44.4500392,11.0948604 43.9903529,10.4366391 C43.0248432,9.054153 41.1768707,8.04809691 39.6624169,7.38872471 C39.0350396,7.11552082 38.0760956,6.7863659 37.6978592,6.18329884 C37.1503348,5.3103035 38.0654485,4.24980141 38.5907029,3.61946708 C39.3277447,2.73496283 40.5569463,1.42542556 41.7918264,1.32591772 C42.8558213,1.24022058 43.8834388,1.79194018 44.8972152,2.02592524" id="Shape-Copy-3"></path>
        </g>
    </g>
</svg>