<?xml version="1.0" encoding="UTF-8"?>
<svg width="150px" height="29px" viewBox="0 0 150 29" version="1.1" xmlns="http://www.w3.org/2000/svg" xmlns:xlink="http://www.w3.org/1999/xlink">
    <title>lekskeks</title>
    <g id="Page-1" stroke="none" stroke-width="1" fill="none" fill-rule="evenodd" stroke-linecap="round" stroke-linejoin="round">
        <g id="lekskeks" transform="translate(2.000000, 2.000000)" stroke="#F5EC00" stroke-width="3">
            <path d="M3.67409481,0.101265823 C3.22926597,2.48533816 3.53264132,4.89297649 2.9069867,7.26220615 C2.20610751,9.91579024 0.952581943,12.3926944 0.359520289,15.074141 C0.101123236,16.2424159 -0.261675615,17.5864593 0.28442609,18.7197107 C4.94691541,19.6226401 10.1401486,20.1518987 14.8860759,20.1518987" id="L"></path>
            <path d="M19.9071127,9.94138871 C19.917934,8.64660593 20.5456976,7.55654373 21.1127058,6.42295723 C22.4613221,3.72692654 24.322058,0.054205321 27.7297131,0.0377859741 C28.9190091,0.0320522339 31.7480525,-0.296204392 32.3265338,1.09227292 C32.9493432,2.58773661 31.7011169,4.38487322 30.7264209,5.38032871 C28.5137984,7.64033453 24.4285757,11.9461128 20.9501261,9.94138871 L19.776736,9.94138871 C19.2968195,10.7723901 19.3210696,11.6258052 19.1999496,12.5476343 C19.0107731,13.9862818 18.8144258,16.1888199 19.5457086,17.4995008 C19.99616,18.3067853 20.8561245,18.7843798 21.6020095,19.2804787 C24.3924614,21.1362558 27.7865573,21.6430402 30.7283766,19.8451218 M20.9501261,9.68076416 L20.9501261,9.94138871" id="Shape-Copy"></path>
            <path d="M40.6436222,0.417721519 C39.4004362,4.23278913 39.2083739,8.14413893 39.2083739,12.1435628 C43.3210127,14.9874702 46.3847459,21.0949398 51.7341772,21.7848101 M48.6027264,2.76288978 L45.7322298,5.79493177 L43.6445959,6.36806483 L39.5998053,7.84408768 M39.338851,12.27385 L38.7797566,14.8795925 L38.164557,20.2213646" id="Shape-Copy-2"></path>
            <path d="M136.162506,21.3913071 L136.683121,22.17212 C138.910966,22.17212 141.115774,22.2400507 143.320972,21.8798357 C144.349969,21.7117007 145.343174,21.7165157 145.924051,20.7406297 C144.851452,18.2437203 140.780627,16.3480368 138.505276,15.0162304 C137.557495,14.4614628 136.317519,14.0383924 135.721674,13.0606845 C134.244167,10.6358702 136.905684,7.33290163 138.63543,5.8949046 C139.17622,5.44528653 139.769852,4.89559427 140.457585,4.68828845 C142.00069,4.22305412 143.74228,5.10172887 145.143127,5.64491435" id="Shape-Copy-7"></path>
            <path d="M130.835443,1.10126582 C126.099168,5.24306011 120.681545,8.82734786 114.968961,11.4182057 C114.572559,10.6722518 114.708855,9.76488345 114.708855,8.93691637 C114.708855,7.04708805 114.45213,4.77070098 115.35912,3.06017846 M114.968961,11.4182057 L114.968961,12.3323649 C118.09934,14.3318924 121.628722,15.7522346 124.852999,17.5928289 C126.302701,18.4204042 127.984808,20.0197911 129.664965,20.1680155 M114.968961,12.3323649 C114.420007,13.3652343 114.708855,14.9671024 114.708855,16.119596 C114.708855,19.085651 114.712496,22.0433479 114.838908,25" id="Shape-Copy-6"></path>
            <path d="M94.9047089,13.2506275 C95.1063542,8.62884261 98.9327903,4.74345582 102.469671,2.29527101 C104.112311,1.15833903 106.949954,-0.00532126804 108.860759,1.2554737 C108.857368,6.44924493 104.183135,9.73343981 99.9914937,11.8487591 C98.5172391,12.5927194 96.6335635,13.7471226 94.9047089,13.2506275 C94.5946758,13.8947151 94.6883249,14.5145517 94.6066754,15.2063591 C94.4000737,16.9558262 93.9045687,20.5057399 95.3096952,21.8280752 C97.3243228,23.7240918 101.562919,23.649774 104.034835,22.8989034 M92.556962,13.1202454 L94.7742785,13.3810096" id="Shape-Copy-5"></path>
            <path d="M74.3490209,0.810126582 C73.5521826,3.30105131 72.5275456,6.4158502 73.3034729,9.0396225 L72.9113924,9.95401094 L73.3034729,11.390907 C74.7184914,11.6953984 75.7148986,12.8871078 76.7015038,13.8728185 C77.4919381,14.6625889 78.4203847,15.3485108 79.1173731,16.2241031 C80.7471211,18.2711575 82.2176843,20.8765114 84.6738072,21.9716875 M88.2025316,4.59830724 C86.5069142,5.63574624 84.658124,6.99609497 82.7134047,7.50344993 C81.3792855,7.85144004 80.0009919,7.60899648 78.6619063,7.89154251 C76.9008114,8.26291484 75.098156,8.89684728 73.3034729,9.0396225 M73.1727794,11.521534 L73.1727794,22.8860759" id="Shape-Copy-4"></path>
            <path d="M59.5013904,20.164557 C60.5133818,20.164557 61.496146,20.0949046 62.5023964,20.0389223 C63.2975325,19.9947875 64.4475702,19.9768211 65.0931779,19.4468122 C66.2459556,18.5003212 65.3677047,16.3159712 64.6916955,15.3479986 C63.2718282,13.3149309 60.5542216,11.8354366 58.3270837,10.8657716 C57.4044701,10.4640012 55.9942582,9.97994985 55.4380283,9.09308653 C54.6328453,7.80926986 55.9786008,6.24970795 56.7510336,5.32274571 C57.8349187,4.02200416 59.6425681,2.09621405 61.4585682,1.949879 C63.0232666,1.8238538 64.5344689,2.63520615 66.0253165,2.97930182" id="Shape-Copy-3"></path>
        </g>
    </g>
</svg>